<?xml version="1.0" encoding="utf-8"?>
<!-- Generator: Adobe Illustrator 24.0.1, SVG Export Plug-In . SVG Version: 6.00 Build 0)  -->
<svg version="1.1" id="Layer_1" xmlns="http://www.w3.org/2000/svg" xmlns:xlink="http://www.w3.org/1999/xlink" x="0px" y="0px"
	 viewBox="0 0 1064.8 351.5" style="enable-background:new 0 0 1064.8 351.5;" xml:space="preserve">
<style type="text/css">
	.st0{fill:#B0B2B3;}
	.st1{fill:#1572A4;}
</style>
<polygon class="st0" points="99.4,53.7 179.1,0 258.7,0 68.4,351.3 0,351.3 162.9,53.8 "/>
<path class="st1" d="M147.6,351.3h305.4c0,0,55.9,7.7,92.7-55.1c34.9-59.6,0.9-141.7-70.9-157c-6.1-1.3-12.2-1.9-18.4-1.9l-113.7,0
	l-41.8,78.3h150.8c4.3,0,8.5,0.9,12.4,2.8c4,2,8.6,5.3,12.3,10.8c4.9,7.5,5.8,17,2.8,25.5c-2.6,7.2-6.8,11.6-11,14.4
	c-4.6,3-10,4.5-15.5,4.5H188.5L147.6,351.3z"/>
<polygon class="st1" points="682.6,0 639.7,79.6 373.9,79.6 415.8,0 "/>
<polygon class="st1" points="724.5,0 806.1,0 691,215.6 608.9,215.6 695.2,54.6 "/>
<path class="st1" d="M529.9,351.3h305.4c0,0,55.9,7.7,92.7-55.1c34.9-59.6,0.9-141.7-70.9-157c-6.1-1.3-12.2-1.9-18.4-1.9l-112.7,0
	L684,215.6h149.8c4.3,0,8.5,0.9,12.4,2.8c4,2,8.6,5.3,12.3,10.8c4.9,7.5,5.8,17,2.8,25.5c-2.6,7.2-6.8,11.6-11,14.4
	c-4.6,3-10,4.5-15.5,4.5H570.8L529.9,351.3z"/>
<polygon class="st1" points="1064.8,0 1021.9,79.6 757.2,79.6 799.1,0 "/>
<polygon class="st0" points="308.8,215.6 423.8,0 323.2,0 245.6,54.6 307.9,54.6 221.6,215.6 "/>
</svg>
